<svg xmlns:svg="http://www.w3.org/2000/svg" xmlns="http://www.w3.org/2000/svg" width="38mm" height="38mm" viewBox="0 0 744.1 1052.4" version="1.1">
  <path d="m93.8 236.3c-2.2-0.8-3.6-2-4.8-4.2l-1-1.9 0-33.3 0-33.3 1.7 0c3.1 0 2.8 1 2.8-12l0-11.3 2.4-2.3c2.7-2.6 4.3-3.5 6.6-3.5 2.9 0 4.7 1.2 5.8 4.2 0.6 1.6 0.7 2.2 0.8 12.9 0.1 10 0.2 11.3 0.6 11.6 0.6 0.5 4.1 0.5 4.9 0.1 0.5-0.3 0.6-0.6 0.6-3l0-2.7 5.7 0 5.7 0 0.5 1.4c0.8 2.1 2.7 3.9 4.6 4.4 3.1 0.9 8.1 0.5 9.2-0.8 0.7-0.8 0.9-3.5 0.3-4.3-0.4-0.5-0.5-0.5-2.5 0-2.2 0.6-4 0.5-4.6-0.3-0.3-0.4 0.7-0.4 8.5-0.4l8.9 0 1.8 1.6c3.5 3.2 7.7 4.7 12.9 4.7 1.6 0 3.7-0.1 4.7-0.3 4.1-0.8 8.8-3.3 9.2-5l0.2-1 3.7 0c3.7 0 3.7 0 4.1 0.8 0.7 1.2 3.1 3.3 5 4.2 2.4 1.1 6 1.7 8.9 1.5 2.9-0.2 4.9-0.8 7.3-2.1l1.9-1 0 34.6 0 34.6-1 1.9c-0.6 1.2-1.4 2.2-2.3 2.9-2.7 2 1.2 1.9-57.9 1.9-51.1 0-53.6 0-55.2-0.6zM197.6 210.6c0.8-1 0.8-1.2-0.1-2.1l-0.7-0.7-43.4 0c-38.8 0-43.5 0-44.1 0.5-0.8 0.6-0.9 1.8-0.2 2.6 0.5 0.5 2.2 0.5 44.2 0.5l43.7 0 0.6-0.8zm-0.4-26.4c0.9-0.6 1-1.5 0.4-2.4l-0.6-0.8-43.7 0c-40.2 0-43.7 0-44.2 0.5-0.8 0.7-0.7 2.1 0.1 2.6 0.6 0.4 5.3 0.5 44 0.5 37.7 0 43.4-0.1 44-0.4zM12.3 178.2c-4.8-1.3-8.5-4.3-10.7-8.8-1.7-3.5-1.7-1.9-1.7-44.5 0-27.3 0.1-39.7 0.3-40.8 0.5-2.5 2.2-5.7 4-7.7 1.9-2.1 3.9-3.4 6.7-4.5l2-0.8 20.3-0.1 20.3-0.1 0-24.3c0-21.2 0.1-24.4 0.5-25.4 0.6-1.4 1.2-2.1 2.6-2.8 1-0.5 1.9-0.6 10-0.6 5.5 0 9.2 0.1 9.7 0.3 1.2 0.5 2.5 1.7 3.1 3.1 0.5 1.1 0.6 2.5 0.6 25.4l0 24.2 69.1 0 69.2 0 0-24.2c0-22.9 0-24.3 0.6-25.4 0.6-1.4 1.9-2.7 3.1-3.1 0.5-0.2 4.2-0.3 9.7-0.3 7.6 0 9 0.1 9.8 0.5 1.4 0.7 2 1.3 2.6 2.6 0.5 1.1 0.6 2.2 0.6 25.6l0 24.5 20.3 0.1 20.3 0.1 2 0.8c5 1.9 8.3 5.3 10.2 10.3l0.7 1.8 0.1 40c0.1 44.4 0.2 42-1.9 46-1.8 3.5-5.1 6.4-9 7.8l-1.8 0.7-32.3 0.1-32.3 0.1 0-31.8c0-36 0.1-33.9-2.4-39.1-3.3-6.7-9.1-11.4-16.5-13.4l-2.5-0.7-50.4 0-50.4 0-2.5 0.7c-7.3 1.9-13.2 6.7-16.4 13.1-2.7 5.4-2.5 3.1-2.5 39.3l0 31.9-31.7 0c-26.2 0-32-0.1-33.3-0.4zM239.5 163.4c1.6-0.6 3.8-2 5.5-3.6l1.1-1 0 2.1c0 1.8 0.1 2.2 0.6 2.4 0.8 0.4 4 0.4 4.5 0 0.3-0.3 0.4-6.1 0.4-24.3 0-27.4 0.3-24.6-3-24.6-3.2 0-3-0.8-3 9.9l0 9.3-1.2-1.1c-3-2.7-5.7-3.7-9.5-3.4-6 0.4-10 4.1-11.8 10.9-0.8 3-0.9 9.6-0.2 13 1.3 5.9 4.9 9.9 9.8 10.8 1.9 0.3 5.1 0.1 6.9-0.6zm-6-4.7c-2.9-1.3-4.5-4.2-5.1-9.4-0.7-6.2 1-11.7 4.2-13.9 1.1-0.7 1.6-0.9 3.4-1 2.8-0.1 4.4 0.6 7.4 3.5l2.3 2.2 0 6.5 0 6.5-2.2 2.2c-3.6 3.6-7.1 4.8-10.1 3.5zm48.2 4.8c4.3-0.9 5.9-1.8 6.2-3.3 0.2-1.2-0.3-3.5-0.8-3.5-0.2 0-1.7 0.5-3.4 1.1-2.3 0.8-3.9 1.1-5.7 1.2-7.3 0.5-10.9-2.3-11.6-9.2l-0.2-1.8 10.4 0c11.4 0 12.3-0.1 12.7-1.7 0.3-1.3-0.1-6.2-0.8-8.2-1.6-5-5.7-8.4-11.1-8.9l-2-0.2 0.7-2.1c2.2-6.6-2.1-13.6-9-14.9-3.4-0.6-7.8 0.9-10.2 3.5-4.3 4.8-4.1 11.6 0.5 16 1.6 1.5 4.2 3 5.3 3 0.3 0 0.5 0.1 0.4 0.2-2.6 5.2-3.4 8.5-3.1 13.6 0.4 8.2 3.6 13 9.9 15 3 1 7.8 1 11.8 0.2zm-15.8-20.1c0-0.1 0.1-0.9 0.3-1.9 0.4-2.2 1.2-3.9 2.6-5.3 1.5-1.6 3-2.3 5.2-2.5 5.3-0.5 9.2 3 9.2 8.4l0 1.4-8.7 0c-4.8 0-8.7 0-8.7-0.1zm-2.5-14.3c-1.3-0.4-2.9-1.7-3.5-3.1-0.9-1.8-0.7-4.5 0.5-6.2 2.2-3.1 7.1-3.3 9.6-0.3 2.2 2.7 1.5 7.1-1.5 8.9-1.4 0.8-3.7 1.1-5 0.7zM14.2 163.2c0.7-0.5 0.7-0.5 0.7-8.7l0-8.2 3.5 0c4.5 0 7.7-0.6 10.5-1.9 4-1.9 6.5-5.1 7.5-9.6 0.5-2.5 0.6-4 0.1-6.3-0.7-4-3.1-7.1-6.6-8.8-3.1-1.5-5.3-1.8-12.9-1.8-6.4 0-6.8 0-7.6 0.6l-0.8 0.6 0 22c0 25.2-0.3 22.6 3 22.6 1.3 0 2.2-0.1 2.6-0.5zm0.4-31.2 0-9.1 4.3 0c5.2 0 6.9 0.4 8.7 2.1 1.8 1.6 2.6 3.7 2.6 6.4 0 1.2-0.1 2.7-0.3 3.4-0.8 2.8-3.3 5.3-6.2 6.1-0.6 0.2-2.9 0.3-5.1 0.3l-4 0 0-9.1zm35.9 31.2 0.7-0.5 0-10.6 0-10.6 1.5-2.1c1.7-2.4 3.3-3.9 4.9-4.3 0.9-0.3 1.5-0.2 3.2 0.2 2.8 0.7 3 0.5 3-2.4 0-2.5-0.3-2.9-2-3.4-3.7-1-6.9 0.2-9.9 3.8l-1.3 1.6 0-2.2c0-2.7-0.2-3-2.9-3-1.6 0-2.1 0.1-2.4 0.5-0.3 0.4-0.4 3.6-0.4 16.2 0 8.6 0.1 15.9 0.2 16.3 0.2 0.8 0.6 0.9 3 1 1.2 0 2-0.1 2.5-0.4zm25 0.2c0.6-0.3 0.6-0.8 0.6-16.6 0-14.6-0.1-16.3-0.5-16.7-0.6-0.5-4.4-0.5-5.1 0-0.4 0.3-0.5 2.4-0.5 16.7 0 15.2 0 16.3 0.5 16.6 0.7 0.4 4.2 0.4 4.9 0zm-0.2-39.9c0.4-0.2 0.9-0.6 1.1-1 0.5-0.9 0.5-3.8 0-4.6-0.5-0.9-2.2-1.4-4-1.2-2.1 0.2-2.9 1.1-2.9 3.4 0 1.9 0.4 3 1.3 3.4 0.8 0.4 3.5 0.4 4.5 0.1zM267.9 107.5c3.6-1 6.2-3.1 7.7-6.4 0.9-1.8 1-2.3 1-4.7 0-2.4-0.1-2.9-1-4.7-1.7-3.5-4.6-5.8-8.4-6.6-5.9-1.2-12.1 3.2-13.2 9.5-1.4 7.8 6.3 15 13.9 13zm-5.6-5.9c-0.6-0.3-1.5-1.2-1.9-1.8-0.7-1.1-0.8-1.6-0.8-3.4 0-1.8 0.1-2.3 0.8-3.4 0.5-0.7 1.4-1.5 2-1.9 1.4-0.7 4-0.8 5.5-0.2 1.8 0.8 3.5 3.4 3.5 5.4 0 2.1-1.7 4.7-3.5 5.4-1.4 0.6-4.2 0.5-5.6-0.2zm-66.1 57.2c-1.9-0.7-2-1-0.4-1 1.2 0 1.5-0.1 1.9-0.8 0.5-0.7 0.5-0.9 0.1-1.6-0.4-0.8-0.6-0.8-3.4-0.9l-3-0.1-0.6-1.8c-0.8-2.6-1-7-0.4-9.7 1.3-5.9 4.1-8.5 9.6-8.5 2.2 0 3 0.1 4.2 0.7 2 0.9 3.2 2.2 4.2 4.3 1 2.3 1.4 4.3 1.4 7.8 0 5.9-1.8 9.6-5.4 11.5-1.7 0.9-6.4 1.1-8.2 0.4zm-32.2-0.5c-3.2-0.4-2.4-0.6 2.4-0.5 3 0 4.3 0.1 3.6 0.3-1.7 0.4-3.9 0.5-6 0.3zm-49.8-10.7c0-9.7-0.6-12.2-3.3-15.3l-1.2-1.3 5 0 5 0 0 1.2c0 0.7 0.2 1.5 0.3 2 0.3 0.7 0.5 0.8 2.9 0.8l2.5 0 0 9.8 0 9.8-5.5 0-5.5 0 0-6.8zm17.1-2.9 0-9.7 4.2 0c4 0 4.2 0 4.7-0.7 0.3-0.4 0.5-1.2 0.5-1.9l0-1.3 3.4 0 3.4 0-0.4 1.4c-1.7 5.7-1.2 15.6 1 20.7l0.6 1.3-8.7 0-8.7 0 0-9.7zm24.6 8.9c-1-1.4-2-3.9-2.6-6.2-1-4.1-0.6-11.9 0.8-15.5l0.3-0.8 18.8 0 18.8 0-1.5 1.1c-1.7 1.3-3.7 3.8-4.6 5.7-1.8 4.3-2.2 10.8-1 15.9l0.2 0.7-14.3 0-14.3 0-0.6-0.9zM92.3 132.6c0-2.4-0.4-2.8-2.5-2.9l-1.7 0 0-6.6c0-7.6 0.2-8.6 2.1-10.7 0.6-0.7 1.9-1.7 2.7-2.1l1.6-0.8 54.6 0c52.5 0 54.7 0 55.8 0.6 1.7 0.8 3.3 2.2 4.3 3.9l0.8 1.4 0.1 8.4 0.1 8.4-1-0.6c-2.1-1.3-4.4-1.9-7.9-2-2.5-0.1-3.4-0.3-3.4-0.6 0-0.2-0.3-0.6-0.7-0.9-0.6-0.4-3.1-0.5-20.8-0.5l-20.1 0 1.2-1.2c0.7-0.7 2.1-1.6 3.1-2.2 1.9-0.9 2.1-1 5.6-1 4.2 0 5.5 0.4 9 2.7 1.1 0.7 2.3 1.3 2.6 1.3 0.8 0 1.1-0.9 1.1-3 0-1.6-0.1-1.9-0.9-2.8-2.7-3-10.7-4.9-16.2-3.7-4.7 1-9.3 4-11.7 7.9l-1.3 1.9-8.8 0-8.8 0 0-2.7c0-3.3-0.2-3.5-3-3.5-3.1 0-3 0-3 3.3l0 2.9-7.7 0c-6.5 0-7.8 0.1-8.4 0.5-0.8 0.6-0.9 1.8-0.1 2.6 0.5 0.6 0.5 0.6-0.2 0.1-1.5-0.9-4.2-1.5-6.6-1.4-2.8 0.2-5.3 1.3-8 3.5l-1.9 1.6 0-1.8zM88.1 30c0.1-22.1 0.1-23.7 0.6-24.6 0.9-1.7 2.7-3.4 4.3-4.2l1.5-0.7 54.6 0c54.2 0 54.6 0 56 0.6 1.6 0.7 3.4 2.4 4.3 4 0.6 1.2 0.6 1.2 0.7 24.8l0.1 23.6-61.1 0-61.1 0 0.1-23.6z" fill="#fff"/>
</svg>